<svg xmlns="http://www.w3.org/2000/svg" xmlns:xlink="http://www.w3.org/1999/xlink" xmlns:inkscape="http://www.inkscape.org/namespaces/inkscape" version="1.1" width="413.835" height="411.87" viewBox="0 0 413.835 411.87">
<defs>
<clipPath id="clip_1">
<path transform="matrix(1,0,0,-1,0,411.87)" d="M0 411.87H413.835V0H0Z"/>
</clipPath>
</defs>
<g inkscape:groupmode="layer" inkscape:label="Livello 1">
<path transform="matrix(1,0,0,-1,0,411.87)" d="M0 0H413.835V411.871H0Z" fill="#bfc0e1"/>
<g clip-path="url(#clip_1)">
<path transform="matrix(1,0,0,-1,207.1377,201.1263)" d="M0 0 .002-1.505-24.166-1.538-24.168-.033-18.656 3.083-18.697 32.666C-18.701 35.539-18.805 37.93-19.008 39.835-19.212 41.741-19.548 43.259-20.017 44.396-20.487 45.532-21.09 46.35-21.825 46.851-22.562 47.351-23.431 47.6-24.433 47.599-26.775 47.596-29.029 46.573-31.199 44.531-33.369 42.488-35.321 39.829-37.054 36.552L-37.008 3.058-30.486-.042-30.484-1.546-54.651-1.579-54.653-.075-49.142 3.041-49.183 32.624C-49.187 35.497-49.29 37.888-49.493 39.793-49.696 41.699-50.033 43.218-50.502 44.354-50.972 45.49-51.575 46.308-52.311 46.81-53.048 47.31-53.915 47.559-54.919 47.557-56.122 47.556-57.275 47.286-58.377 46.751-59.48 46.214-60.532 45.527-61.534 44.691-62.535 43.852-63.453 42.883-64.287 41.778-65.122 40.674-65.839 39.521-66.439 38.316L-66.39 3.018-60.87-.083-60.868-1.588-85.036-1.621-85.038-.116-78.524 3.001-78.581 44.316-85.103 47.516-85.105 49.021-68.462 51.049-66.456 51.052-66.446 43.531C-65.845 44.6-65.044 45.688-64.044 46.794-63.042 47.898-61.907 48.885-60.638 49.756-59.37 50.626-57.967 51.33-56.429 51.868-54.892 52.404-53.222 52.674-51.416 52.676-49.947 52.678-48.457 52.463-46.952 52.031-45.448 51.597-44.043 50.932-42.738 50.032-41.433 49.131-40.313 47.961-39.374 46.526-38.436 45.089-37.766 43.335-37.361 41.264-35.294 44.677-32.925 47.438-30.252 49.547-27.582 51.656-24.475 52.713-20.931 52.718-19.26 52.72-17.571 52.455-15.866 51.924-14.16 51.39-12.621 50.524-11.249 49.322-9.878 48.121-8.755 46.568-7.883 44.664-7.012 42.76-6.574 40.436-6.57 37.696L-6.523 3.1Z" fill="#c3e2c0"/>
<path transform="matrix(1,0,0,-1,267.0903,261.94209)" d="M0 0 .002-1.505-24.166-1.538-24.168-.033-18.656 3.083-18.697 32.666C-18.701 35.539-18.805 37.929-19.008 39.835-19.212 41.741-19.548 43.259-20.017 44.396-20.487 45.532-21.09 46.35-21.825 46.851-22.562 47.351-23.431 47.6-24.433 47.599-26.775 47.596-29.029 46.572-31.199 44.531-33.369 42.488-35.321 39.829-37.054 36.552L-37.008 3.058-30.486-.042-30.484-1.546-54.651-1.579-54.653-.075-49.142 3.041-49.183 32.624C-49.187 35.497-49.29 37.888-49.493 39.793-49.696 41.699-50.033 43.218-50.502 44.354-50.972 45.49-51.575 46.308-52.311 46.81-53.048 47.31-53.915 47.559-54.919 47.557-56.122 47.556-57.275 47.286-58.377 46.751-59.48 46.214-60.532 45.527-61.534 44.691-62.535 43.852-63.453 42.883-64.287 41.778-65.122 40.674-65.839 39.52-66.439 38.316L-66.39 3.018-60.87-.083-60.868-1.588-84.192-1.619V.289L-78.524 3.001-78.581 44.316-84.192 47.069V49.132L-68.462 51.049-66.456 51.052-66.446 43.531C-65.845 44.6-65.044 45.688-64.044 46.794-63.042 47.898-61.907 48.885-60.638 49.756-59.37 50.626-57.967 51.33-56.429 51.868-54.892 52.404-53.222 52.674-51.416 52.676-49.947 52.678-48.457 52.463-46.952 52.031-45.448 51.597-44.043 50.932-42.738 50.032-41.433 49.131-40.313 47.961-39.374 46.526-38.436 45.089-37.766 43.335-37.361 41.264-35.294 44.676-32.925 47.438-30.252 49.547-27.582 51.656-24.475 52.713-20.931 52.718-19.26 52.72-17.571 52.455-15.866 51.924-14.16 51.39-12.621 50.524-11.249 49.322-9.878 48.121-8.755 46.568-7.883 44.664-7.012 42.76-6.574 40.436-6.57 37.696L-6.523 3.1Z" fill="#c3e2c0"/>
<path transform="matrix(1,0,0,-1,234.8855,164.9372)" d="M0 0C-3.084 3.953-6.296 6.576-9.638 7.871-12.979 9.163-15.862 8.864-18.287 6.973-20.974 4.876-22.177 1.987-21.894-1.69-21.61-5.371-19.925-9.185-16.842-13.138ZM13.618-32.62C10.772-34.84 7.737-36.359 4.518-37.175 1.296-37.994-1.923-38.13-5.143-37.59-8.363-37.05-11.499-35.829-14.551-33.927-17.603-32.028-20.402-29.442-22.953-26.173-25.543-22.853-27.426-19.488-28.601-16.08-29.777-12.673-30.247-9.352-30.014-6.118-29.782-2.884-28.864 .205-27.261 3.153-25.659 6.097-23.382 8.721-20.43 11.025-17.952 12.957-15.378 14.413-12.71 15.394-10.04 16.374-7.383 16.772-4.739 16.589-2.095 16.404 .476 15.611 2.969 14.208 5.465 12.804 7.801 10.705 9.98 7.912L12.386 4.828-14.497-16.144-13.572-17.329C-11.269-20.282-8.877-22.696-6.394-24.575-3.91-26.454-1.42-27.798 1.075-28.605 3.57-29.415 5.983-29.653 8.309-29.32 10.637-28.989 12.802-28.042 14.806-26.479 17.81-24.135 19.766-20.937 20.671-16.88 21.577-12.824 21.416-8.435 20.19-3.71L22.167-2.168C23.115-4.905 23.656-7.663 23.788-10.442 23.922-13.221 23.645-15.938 22.961-18.592 22.275-21.246 21.153-23.774 19.594-26.177 18.035-28.581 16.042-30.729 13.618-32.62" fill="#c3e2c0"/>
<path transform="matrix(1,0,0,-1,271.0956,262.5285)" d="M0 0 5.264 2.761 5.26 48.181-.004 50.389V51.424L20.703 51.425 20.704 50.391 15.44 48.181 15.443 2.761 20.707 .001V-1.034L0-1.036Z" fill="#c3e2c0"/>
<path transform="matrix(1,0,0,-1,265.133,191.3297)" d="M0 0 7.878 7.435 17.468-9.804C17.734-10.299 15.823-11.944 15.355-11.632L2.958-2.241Z" fill="#c3e2c0"/>
</g>
</g>
</svg>
