<?xml version="1.0" standalone="no"?>
<!DOCTYPE svg PUBLIC "-//W3C//DTD SVG 20010904//EN"
 "http://www.w3.org/TR/2001/REC-SVG-20010904/DTD/svg10.dtd">
<svg version="1.0" xmlns="http://www.w3.org/2000/svg"
 width="2048.000000pt" height="2048.000000pt" viewBox="0 0 2048.000000 2048.000000"
 preserveAspectRatio="xMidYMid meet">

<g transform="translate(0.000000,2048.000000) scale(0.100000,-0.100000)"
fill="#000000" stroke="none">
<path d="M12430 16704 c-443 -62 -904 -270 -1330 -600 -132 -102 -414 -379
-514 -504 -231 -290 -418 -666 -505 -1015 -79 -318 -92 -716 -35 -1065 92
-556 376 -1162 791 -1685 117 -147 439 -470 588 -588 332 -263 724 -465 1081
-557 917 -237 1873 31 2568 718 426 421 714 963 820 1544 65 354 68 706 10
1058 -34 205 -136 580 -157 580 -6 0 -52 -32 -104 -71 -69 -51 -93 -75 -89
-87 17 -54 50 -215 71 -342 35 -216 49 -417 42 -630 -17 -520 -154 -936 -425
-1285 -85 -110 -250 -270 -360 -348 -161 -115 -373 -209 -572 -252 -117 -26
-399 -31 -540 -11 -670 97 -1316 542 -1954 1344 -53 67 -96 125 -95 129 0 5
85 74 187 155 255 200 1174 926 1407 1112 1367 1090 1349 1076 1353 1085 4 10
-151 230 -246 351 -126 159 -285 332 -391 425 -324 284 -628 443 -993 521
-157 33 -443 42 -608 18z m-396 -900 c344 -71 781 -363 1108 -742 84 -97 168
-204 168 -214 0 -3 -96 -82 -212 -175 -1340 -1069 -1635 -1303 -1642 -1303
-11 0 -168 233 -242 358 -430 725 -422 1436 20 1849 227 213 496 289 800 227z"/>
<path d="M4417 16700 c-556 -70 -1014 -361 -1410 -893 l-82 -111 -3 403 -2
402 -38 16 c-34 14 -52 13 -247 -11 -115 -14 -545 -66 -955 -116 -410 -49
-760 -92 -778 -95 l-32 -6 0 -88 0 -87 311 -150 c171 -82 328 -164 350 -182
l39 -34 0 -2307 0 -2308 -22 -20 c-19 -17 -392 -199 -626 -304 l-62 -28 0 -81
0 -80 1335 0 1335 0 0 78 c0 74 -1 78 -27 94 -16 9 -145 82 -288 162 -143 81
-268 156 -277 168 -17 19 -18 129 -18 1999 l0 1980 47 82 c142 251 364 522
548 668 319 253 674 344 900 232 77 -39 129 -86 183 -168 111 -165 158 -359
204 -830 8 -84 12 -692 15 -2037 l4 -1916 -33 -25 c-18 -13 -114 -69 -213
-124 -99 -55 -218 -122 -265 -149 l-85 -49 -3 -83 -3 -82 1346 0 1346 0 -3 78
-3 77 -65 33 c-36 18 -193 93 -350 167 -157 74 -293 145 -302 156 -17 20 -18
125 -18 1890 l0 1869 45 89 c84 169 231 397 351 546 82 103 259 277 352 349
170 130 319 202 487 237 346 72 563 -65 669 -421 48 -162 72 -323 97 -655 16
-197 25 -3858 10 -3897 -7 -20 -62 -55 -238 -155 -125 -72 -256 -145 -290
-164 l-63 -34 0 -82 0 -83 1340 0 1340 0 0 78 0 79 -97 46 c-54 25 -208 98
-343 162 -135 64 -255 126 -267 138 l-23 22 -4 1965 c-3 1339 -8 1998 -15
2070 -56 525 -193 848 -475 1117 -153 146 -306 238 -518 312 -234 80 -469 112
-682 93 -469 -43 -825 -219 -1196 -591 -153 -154 -268 -298 -414 -518 l-100
-151 -33 108 c-196 647 -596 1015 -1228 1131 -124 23 -355 32 -458 19z"/>
<path d="M17062 12308 c-233 -226 -422 -414 -420 -419 2 -4 163 -131 358 -281
195 -151 492 -379 660 -509 237 -183 565 -433 695 -530 6 -5 40 18 81 54 38
34 87 77 108 95 l37 32 -199 363 c-329 596 -883 1592 -890 1599 -4 3 -197
-178 -430 -404z"/>
<path d="M11100 9889 c-52 -5 -150 -20 -217 -34 -474 -99 -852 -359 -1204
-828 -51 -67 -96 -123 -100 -125 -5 -2 -9 174 -9 391 0 355 -2 396 -17 408
-30 25 -99 18 -1458 -156 -236 -30 -445 -55 -462 -55 l-33 0 0 -104 0 -103
295 -147 c185 -93 302 -157 315 -173 20 -26 20 -32 20 -2240 l0 -2215 -29 -26
c-16 -15 -155 -92 -310 -172 l-281 -145 0 -92 0 -93 1288 2 1287 3 0 80 0 80
-285 156 c-156 87 -295 167 -307 179 l-23 22 0 1900 0 1900 51 92 c207 368
485 653 787 809 275 141 491 164 679 72 239 -117 348 -457 382 -1195 6 -114
10 -954 10 -1887 0 -1577 -1 -1683 -17 -1703 -9 -11 -145 -92 -302 -179 l-285
-159 -3 -86 -3 -86 1341 0 1341 0 -3 82 -3 82 -195 93 c-403 191 -490 235
-510 260 -20 26 -20 38 -20 1805 l0 1778 39 79 c146 289 327 549 510 731 271
269 546 416 815 436 99 8 180 -6 262 -45 190 -89 299 -306 353 -709 44 -318
44 -328 48 -2234 l4 -1836 -33 -27 c-18 -14 -154 -94 -303 -178 l-270 -152 0
-80 0 -80 1340 0 1340 0 3 77 3 77 -69 35 c-38 19 -114 55 -170 80 -56 25
-185 86 -286 135 -152 74 -188 95 -200 120 -14 27 -16 232 -16 1919 0 1231 -4
1926 -10 1993 -24 236 -91 487 -178 670 -131 273 -383 527 -645 649 -303 141
-638 186 -994 134 -563 -82 -1043 -433 -1465 -1068 -55 -83 -101 -153 -103
-154 -2 -2 -13 29 -25 70 -94 326 -217 546 -414 744 -250 250 -556 387 -941
424 -123 11 -177 11 -315 -1z"/>
<path d="M17390 9627 l0 -62 238 -99 c130 -55 258 -110 285 -123 l47 -23 -2
-2463 -3 -2462 -280 -140 -280 -140 -3 -67 -3 -68 1140 0 c662 0 1142 4 1145
9 3 5 3 36 0 68 l-6 60 -270 134 c-148 74 -277 142 -286 153 -16 17 -17 184
-20 2460 -2 2320 -1 2444 15 2458 16 14 487 217 541 233 20 6 22 13 22 71 l0
64 -1140 0 -1140 0 0 -63z"/>
</g>
</svg>
